<?xml version="1.0" encoding="UTF-8" standalone="no"?>
<!DOCTYPE svg PUBLIC "-//W3C//DTD SVG 1.1//EN" "http://www.w3.org/Graphics/SVG/1.1/DTD/svg11.dtd">
<svg id="azurinspire-dark-logo" data-name="AzurInspire Dark Logo" xmlns="http://www.w3.org/2000/svg" viewBox="0 0 1085.35 219" height="50"><defs><style>.cls-1{fill:#ffffff;}.cls-2{fill:#06b6d4;}</style></defs><title>AzurInspire logo</title><path class="cls-1" d="M354.62,183.33q-2.64-7-5-13.75t-4.82-13.76H296.05l-9.79,27.51h-15.7q6.22-17.1,11.66-31.62t10.64-27.58q5.2-13,10.33-24.94t10.72-23.54h13.83q5.6,11.66,10.72,23.54t10.33,24.94q5.2,13.05,10.65,27.58t11.65,31.62ZM340.48,143.4q-5-13.53-9.86-26.19T320.44,92.9q-5.44,11.66-10.33,24.31T300.4,143.4Z" transform="translate(-18 -18)"/><path class="cls-1" d="M444.58,113.41q-3.27,3.57-8.62,10.1T424.46,138q-6.13,7.92-12.27,16.62t-10.8,16.63h44.43v12.12H384.14v-9.64q3.74-6.83,9.17-15.07t11.42-16.39q6-8.16,11.65-15.38t9.87-12.2H386.32V102.53h58.26Z" transform="translate(-18 -18)"/><path class="cls-1" d="M530.35,181c-3.32.83-7.69,1.7-13.13,2.64A113.17,113.17,0,0,1,498.34,185q-9.33,0-15.69-2.71a25.37,25.37,0,0,1-10.26-7.7,31.16,31.16,0,0,1-5.59-11.73,61.07,61.07,0,0,1-1.71-15V102.53h14.45v42.26q0,14.78,4.66,21.13t15.69,6.37c1.56,0,3.16,0,4.82-.15s3.21-.23,4.66-.39,2.77-.31,4-.47a11.34,11.34,0,0,0,2.57-.54V102.53h14.45Z" transform="translate(-18 -18)"/><path class="cls-1" d="M588.92,100.82c1.24,0,2.67.08,4.27.24s3.19.36,4.74.62,3,.52,4.28.77a28.15,28.15,0,0,1,2.87.7l-2.49,12.59a46.79,46.79,0,0,0-15.84-2.33,37.84,37.84,0,0,0-8,.85q-4,.85-5.2,1.17v67.9H559.09V106a98.9,98.9,0,0,1,12.74-3.5A82.31,82.31,0,0,1,588.92,100.82Z" transform="translate(-18 -18)"/><path class="cls-2" d="M623.88,75.65H639V183.33H623.88Z" transform="translate(-18 -18)"/><path class="cls-2" d="M668.62,104.86c3.32-.82,7.72-1.71,13.21-2.64a114.52,114.52,0,0,1,19-1.4q9.63,0,16,2.72A25,25,0,0,1,727,111.16a29.45,29.45,0,0,1,5.37,11.73A68.42,68.42,0,0,1,733.88,138v45.37H719.43V141.06a69.34,69.34,0,0,0-1-12.74,21.5,21.5,0,0,0-3.34-8.54,13.22,13.22,0,0,0-6.22-4.74,27.38,27.38,0,0,0-9.63-1.48c-1.55,0-3.16.06-4.81.16s-3.24.23-4.74.39-2.85.33-4,.54l-2.57.47v68.21H668.62Z" transform="translate(-18 -18)"/><path class="cls-2" d="M780.49,172.92q8.85,0,13.13-2.34a7.86,7.86,0,0,0,4.27-7.45,9.91,9.91,0,0,0-4.19-8.39q-4.2-3.11-13.83-7c-3.11-1.25-6.09-2.51-8.94-3.81a31.13,31.13,0,0,1-7.38-4.58,20.18,20.18,0,0,1-5-6.37,20.41,20.41,0,0,1-1.86-9.17q0-10.72,7.92-17t21.6-6.3a60.15,60.15,0,0,1,6.83.39q3.42.39,6.38.93c2,.37,3.7.76,5.2,1.17s2.67.78,3.5,1.09l-2.65,12.43a36.05,36.05,0,0,0-7.3-2.57,47.1,47.1,0,0,0-12-1.32A22.19,22.19,0,0,0,775.67,115a8,8,0,0,0-4.5,7.54,10.21,10.21,0,0,0,1,4.66,10.87,10.87,0,0,0,3.1,3.65,25.48,25.48,0,0,0,5.21,3c2.07.93,4.56,1.92,7.46,3q5.74,2.17,10.25,4.27a31.8,31.8,0,0,1,7.69,4.9,18.77,18.77,0,0,1,4.9,6.75,24.55,24.55,0,0,1,1.71,9.72q0,11.18-8.32,16.93t-23.69,5.75q-10.72,0-16.78-1.79a85,85,0,0,1-8.24-2.72l2.65-12.43q2.48.94,7.92,2.8T780.49,172.92Z" transform="translate(-18 -18)"/><path class="cls-2" d="M906,143.08A56.8,56.8,0,0,1,903.62,160a38.35,38.35,0,0,1-7.07,13.36,32.08,32.08,0,0,1-11.42,8.7,36.63,36.63,0,0,1-15.46,3.11,37.6,37.6,0,0,1-12.35-1.86,39.36,39.36,0,0,1-8-3.58v32.32H834.87V105q5.13-1.24,12.82-2.72a95.43,95.43,0,0,1,17.79-1.48,45.24,45.24,0,0,1,16.78,3A35.79,35.79,0,0,1,895,112.17a37.1,37.1,0,0,1,8.16,13.28A51.14,51.14,0,0,1,906,143.08Zm-15.07,0q0-14.13-7-21.75t-18.65-7.61a83,83,0,0,0-10.17.47,41.49,41.49,0,0,0-5.83,1.08v51a29.58,29.58,0,0,0,7.61,4.2,28.59,28.59,0,0,0,10.88,2,23.25,23.25,0,0,0,10.64-2.25,19.62,19.62,0,0,0,7.23-6.22,26.56,26.56,0,0,0,4-9.32A51.66,51.66,0,0,0,891,143.08Z" transform="translate(-18 -18)"/><path class="cls-2" d="M937.41,87.93a9.26,9.26,0,0,1-6.6-2.57,9.05,9.05,0,0,1-2.72-6.91,9,9,0,0,1,2.72-6.91,9.77,9.77,0,0,1,13.21,0,9,9,0,0,1,2.72,6.91A9.05,9.05,0,0,1,944,85.36,9.3,9.3,0,0,1,937.41,87.93Zm7.31,95.4H930.27v-80.8h14.45Z" transform="translate(-18 -18)"/><path class="cls-2" d="M1003.29,100.82c1.24,0,2.67.08,4.27.24s3.19.36,4.74.62,3,.52,4.27.77a27.81,27.81,0,0,1,2.88.7L1017,115.74a46.8,46.8,0,0,0-15.85-2.33,37.82,37.82,0,0,0-8,.85q-4,.85-5.2,1.17v67.9H973.46V106a98.9,98.9,0,0,1,12.74-3.5A82.31,82.31,0,0,1,1003.29,100.82Z" transform="translate(-18 -18)"/><path class="cls-2" d="M1032.81,143.08a51.43,51.43,0,0,1,3.11-18.72,39.06,39.06,0,0,1,8.23-13.28,33.57,33.57,0,0,1,11.81-7.93,36.88,36.88,0,0,1,13.67-2.64q16.32,0,25,10.18t8.7,31v2.4a22.51,22.51,0,0,1-.16,2.72h-55.31q.93,12.58,7.3,19.11t19.89,6.53a53.07,53.07,0,0,0,12.82-1.32,46,46,0,0,0,7.84-2.56l2,12.11a42.62,42.62,0,0,1-9.24,3,66,66,0,0,1-15,1.55,47.44,47.44,0,0,1-18.26-3.19,33.92,33.92,0,0,1-12.66-8.77,35.68,35.68,0,0,1-7.38-13.29A56,56,0,0,1,1032.81,143.08Zm55.47-7.92q.15-9.8-4.9-16.08t-13.9-6.29a19.11,19.11,0,0,0-8.78,1.94,20.78,20.78,0,0,0-6.45,5,23.3,23.3,0,0,0-4.12,7.15,35.31,35.31,0,0,0-1.94,8.23Z" transform="translate(-18 -18)"/><path class="cls-2" d="M127.5,227.5A100,100,0,1,1,208.36,68.67a71,71,0,0,1,8.14-5A109.5,109.5,0,1,0,216,192a72.33,72.33,0,0,1-8.09-5A99.84,99.84,0,0,1,127.5,227.5Z" transform="translate(-18 -18)"/><path class="cls-1" d="M178.71,109A20,20,0,1,1,157,82.25,53.39,53.39,0,1,0,178.71,109ZM127.5,140A11.5,11.5,0,1,1,139,128.5,11.5,11.5,0,0,1,127.5,140Z" transform="translate(-18 -18)"/><path class="cls-1" d="M128,38.5A88.5,88.5,0,1,0,216.5,127,88.5,88.5,0,0,0,128,38.5Zm0,164.22A75.72,75.72,0,1,1,203.72,127,75.72,75.72,0,0,1,128,202.72Z" transform="translate(-18 -18)"/></svg>
